<svg xmlns="http://www.w3.org/2000/svg" viewBox="0 0 520 240" role="img" aria-labelledby="title desc">
  <title id="title">Bajaj logo</title>
  <desc id="desc">Professional blue Bajaj wordmark with geometric emblem</desc>

  <rect width="520" height="240" rx="16" fill="#ffffff"/>

  <g transform="translate(32 30)">
    <rect x="0" y="0" width="170" height="170" rx="30" fill="#0056a6"/>
    <path d="M52 40h52c20 0 33 10 33 27 0 12-6 20-15 24 13 4 21 14 21 30 0 22-16 36-42 36H52V40zm46 44c10 0 15-4 15-11 0-6-5-10-15-10H76v21h22zm4 49c11 0 17-4 17-13 0-8-6-12-17-12H76v25h26z" fill="#ffffff"/>
  </g>

  <g fill="#0056a6" font-family="Arial, Helvetica, sans-serif">
    <text x="255" y="112" font-size="66" font-weight="700" letter-spacing="4">BAJAJ</text>
    <text x="258" y="146" font-size="20" font-weight="700" letter-spacing="3">AUTOMOTIVE</text>
  </g>
</svg>
